<svg xmlns="http://www.w3.org/2000/svg" width="6.72632in" height="1.18005in" viewBox="0 0 484.29501 84.9636">
  <title>Artboard 1</title>
  <path d="M85.55481,77.92739a2.20054,2.20054,0,0,1,.67816-1.63315,2.24217,2.24217,0,0,1,1.63315-.66435,2.31134,2.31134,0,1,1-1.647,3.94451A2.24215,2.24215,0,0,1,85.55481,77.92739Zm103.80255.13841a2.1592,2.1592,0,0,1,.66435-1.59163,2.18674,2.18674,0,0,1,1.60548-.6505,2.256,2.256,0,1,1-1.60548,3.84761,2.18663,2.18663,0,0,1-.66434-1.60549Zm160.61713,0a2.15925,2.15925,0,0,1,.66434-1.59163,2.18672,2.18672,0,0,1,1.60547-.6505,2.256,2.256,0,1,1-1.60547,3.84761,2.18657,2.18657,0,0,1-.66431-1.60549Z" fill="#262f6a"/>
  <path d="M12.47781,73.34623a5.53614,5.53614,0,0,0-4.91333-2.685,5.53612,5.53612,0,0,0-4.249,1.77156A7.01707,7.01707,0,0,0,2.11138,79.353a5.95153,5.95153,0,0,0,1.27331,1.97916,5.64671,5.64671,0,0,0,1.89615,1.2733,6.00675,6.00675,0,0,0,2.2975.429,5.38392,5.38392,0,0,0,3.84761-1.384,4.87184,4.87184,0,0,0,1.52245-3.64H8.0489V76.90322h6.242v.16608a7.25222,7.25222,0,0,1-1.8269,5.25932,6.68493,6.68493,0,0,1-5.05176,1.89612,6.9201,6.9201,0,0,1-5.1763-2.03453A7.32157,7.32157,0,0,1,.25678,76.86165a8.17979,8.17979,0,0,1,.49825-2.865,6.8375,6.8375,0,0,1,1.384-2.339,6.67057,6.67057,0,0,1,2.2975-1.61934,7.30793,7.30793,0,0,1,2.85111-.53979,8.02751,8.02751,0,0,1,3.66768.77506,5.42546,5.42546,0,0,1,2.35285,2.26984Zm5.5223,10.51867V69.817h1.27331V82.60543h4.81643v1.2041Zm22.76736-6.9894A7.16947,7.16947,0,0,1,40.2,79.64357a7.30785,7.30785,0,0,1-1.63314,2.38055,7.69524,7.69524,0,0,1-8.20731,1.60548,7.543,7.543,0,0,1-4.06906-3.99988,7.15531,7.15531,0,0,1-.56746-2.76807,7.27989,7.27989,0,0,1,.56746-2.85111,7.37726,7.37726,0,0,1,1.63315-2.40821,7.14115,7.14115,0,0,1,2.40823-1.57782,8.09645,8.09645,0,0,1,5.81294,0A7.26591,7.26591,0,0,1,38.553,71.60234a7.37725,7.37725,0,0,1,1.63315,2.40821A7.28013,7.28013,0,0,1,40.76747,76.8755Zm-7.52915,6.22815a6.11755,6.11755,0,0,0,2.36671-.45671,6.21427,6.21427,0,0,0,2.00685-1.384,6.29737,6.29737,0,0,0,0-8.844,5.979,5.979,0,0,0-1.993-1.384,6.17269,6.17269,0,0,0-2.38054-.45671,6.03386,6.03386,0,0,0-2.35285.45671,6.22826,6.22826,0,0,0-1.993,1.384,6.39428,6.39428,0,0,0-1.384,2.03453,6.29736,6.29736,0,0,0,1.384,6.82328,6.02114,6.02114,0,0,0,1.97916,1.384A6.10367,6.10367,0,0,0,33.23832,83.10365Zm11.33524.76124V69.817h2.43589a12.26353,12.26353,0,0,1,2.31136.15222,3.07238,3.07238,0,0,1,1.2041.52594,3.4739,3.4739,0,0,1,1.06569,1.28714,3.84735,3.84735,0,0,1,.35986,1.68852,3.11424,3.11424,0,0,1-.58131,1.91,2.76817,2.76817,0,0,1-1.60548,1.038,3.34945,3.34945,0,0,1,2.11757,1.07954,3.28032,3.28032,0,0,1,.7612,2.24213,4.8438,4.8438,0,0,1-.29064,1.75771,3.50139,3.50139,0,0,1-.89961,1.384,3.44624,3.44624,0,0,1-1.48093.81658,12.67712,12.67712,0,0,1-2.948.2353Zm1.27331-7.806H47.4385a4.069,4.069,0,0,0,2.47743-.58131,2.31128,2.31128,0,0,0,.71968-1.92383,2.54668,2.54668,0,0,0-.70587-2.04839,3.9584,3.9584,0,0,0-2.5051-.59512H45.833Zm0,6.69872H47.48a10.54589,10.54589,0,0,0,1.92383-.1107,2.21428,2.21428,0,0,0,.8858-.38753,2.38023,2.38023,0,0,0,.71968-.955,3.18306,3.18306,0,0,0,.263-1.301,3.4739,3.4739,0,0,0-.31831-1.55,2.13122,2.13122,0,0,0-.83043-.955,2.68522,2.68522,0,0,0-.85809-.30449,9.3292,9.3292,0,0,0-1.53628-.09689h-1.91Zm8.66407,1.10725L60.6422,69.26332,66.552,83.86486H65.168l-1.79923-4.76108H57.63883l-1.8546,4.76108Zm3.58464-5.85448h4.89949L60.6422,71.90683Zm11.04461,5.85448V69.817h1.27333V82.60543H75.23v1.2041Zm136.701-.2076V69.62317H208.028a20.62106,20.62106,0,0,1,4.1521.29064,5.2872,5.2872,0,0,1,2.10371.98265,5.92374,5.92374,0,0,1,1.78542,2.39439,9.508,9.508,0,0,1,0,6.72639,5.53613,5.53613,0,0,1-3.84761,3.34938,16.95465,16.95465,0,0,1-3.76457.29064h-2.61586Zm1.27338-1.10712h1.79922a13.42427,13.42427,0,0,0,3.08641-.24912,3.612,3.612,0,0,0,1.55011-.83043,5.21761,5.21761,0,0,0,1.384-2.04839,9.00989,9.00989,0,0,0,0-5.64684,4.89933,4.89933,0,0,0-1.384-2.02068,3.834,3.834,0,0,0-1.647-.85809,15.57087,15.57087,0,0,0-3.3909-.24912h-1.384Zm13.41125,1.10721V69.62317h1.27333v14.048Zm4.678-2.35287,1.0934-.58131a3.017,3.017,0,0,0,1.06569,1.60548,2.90643,2.90643,0,0,0,1.81308.56746,2.768,2.768,0,0,0,2.076-.78891,3.031,3.031,0,0,0,.74739-2.17294,2.76815,2.76815,0,0,0-.49823-1.68852,6.83766,6.83766,0,0,0-2.15909-1.55011,9.68886,9.68886,0,0,1-2.76807-1.97916,3.128,3.128,0,0,1-.70587-2.04839,3.16959,3.16959,0,0,1,1.01036-2.43591,3.69539,3.69539,0,0,1,2.62965-.94113,3.65378,3.65378,0,0,1,1.84074.4429,3.34925,3.34925,0,0,1,1.27333,1.384l-.98265.59512a2.14538,2.14538,0,0,0-.87195-.92732,2.65716,2.65716,0,0,0-1.384-.31834,2.24216,2.24216,0,0,0-1.647.609,2.21449,2.21449,0,0,0-.609,1.647q0,1.48088,2.43591,2.76807l.67816.35986a7.05891,7.05891,0,0,1,2.39439,1.86845,3.94473,3.94473,0,0,1,.609,2.28365,4.15212,4.15212,0,0,1-6.47726,3.41857,4.47041,4.47041,0,0,1-1.564-2.11755Zm14.33862,2.35287V70.81347H235.681v-1.2041h9.03773v1.2041h-3.87527V83.65731Zm16.78835,0h-1.55011l-4.92715-6.69872h-.7612v6.69872H247.819V69.62317h2.58813a5.23176,5.23176,0,0,1,3.41856.955,3.52933,3.52933,0,0,1,1.13492,2.87877,3.41857,3.41857,0,0,1-.96884,2.57428,3.69531,3.69531,0,0,1-2.685.94113Zm-7.25233-12.92687V75.9206h1.28714a4.05523,4.05523,0,0,0,2.49124-.56746,2.36667,2.36667,0,0,0,.70587-1.93764,2.5605,2.5605,0,0,0-.73354-2.0622,3.84775,3.84775,0,0,0-2.46358-.609Zm10.07573,12.92687V69.62317h1.27332v14.048Zm5.7576,0V69.62317h2.43591a12.24963,12.24963,0,0,1,2.31137.15222,3.07228,3.07228,0,0,1,1.2041.52594,3.488,3.488,0,0,1,1.0657,1.28714,3.84735,3.84735,0,0,1,.35986,1.68852,3.11423,3.11423,0,0,1-.5813,1.91,2.76812,2.76812,0,0,1-1.60547,1.038,3.34945,3.34945,0,0,1,2.11758,1.07954,3.2941,3.2941,0,0,1,.7612,2.24213,4.85805,4.85805,0,0,1-.29065,1.75771,3.50124,3.50124,0,0,1-.8996,1.384,3.4322,3.4322,0,0,1-1.48093.81658,12.69129,12.69129,0,0,1-2.948.2353Zm1.27332-7.806h1.59164a4.05516,4.05516,0,0,0,2.47742-.58131,2.31131,2.31131,0,0,0,.71967-1.92383,2.54667,2.54667,0,0,0-.70587-2.04839,3.95824,3.95824,0,0,0-2.49124-.59512h-1.59164Zm0,6.69872h1.63315a10.54591,10.54591,0,0,0,1.92383-.1107,2.22887,2.22887,0,0,0,.8858-.38753,2.38019,2.38019,0,0,0,.71967-.955,3.19744,3.19744,0,0,0,.263-1.301,3.45973,3.45973,0,0,0-.29065-1.48093,2.13127,2.13127,0,0,0-.83044-.955,2.685,2.685,0,0,0-.85815-.29064,9.32888,9.32888,0,0,0-1.53625-.09689h-1.91ZM276.7037,69.62319h1.23181v9.17615a4.38755,4.38755,0,0,0,.955,3.10022,3.806,3.806,0,0,0,2.90649,1.01036,3.76463,3.76463,0,0,0,2.87878-1.01036,4.38755,4.38755,0,0,0,.955-3.10022V69.62317h1.27332v8.761a6.18651,6.18651,0,0,1-1.27332,4.249,5.95137,5.95137,0,0,1-7.68137,0,6.18669,6.18669,0,0,1-1.25949-4.249Zm17.12054,14.03413V70.81347h-3.86148v-1.2041h9.0239v1.2041h-3.87527V83.65731Zm8.2627,0V69.62317h1.27332v14.048Zm20.13766-6.9894a7.183,7.183,0,0,1-.56747,2.76807,7.308,7.308,0,0,1-1.63315,2.38054,7.69525,7.69525,0,0,1-8.20731,1.60548,7.55691,7.55691,0,0,1-4.06906-3.99988,7.15556,7.15556,0,0,1-.56747-2.76807,7.28052,7.28052,0,0,1,.56747-2.85111,7.38973,7.38973,0,0,1,1.63315-2.40821,7.14184,7.14184,0,0,1,2.40823-1.5778,8.0965,8.0965,0,0,1,5.813,0,7.27976,7.27976,0,0,1,2.4082,1.57782,7.36327,7.36327,0,0,1,1.63315,2.40821,7.25208,7.25208,0,0,1,.5813,2.86494Zm-7.52914,6.22815a6.11749,6.11749,0,0,0,2.3667-.45671,6.21365,6.21365,0,0,0,2.00687-1.384,6.29739,6.29739,0,0,0,0-8.844,5.97934,5.97934,0,0,0-1.993-1.384,6.17268,6.17268,0,0,0-2.38055-.45671,6.03393,6.03393,0,0,0-2.35287.45671,6.21471,6.21471,0,0,0-1.993,1.384,6.38069,6.38069,0,0,0-1.384,2.03453,6.29732,6.29732,0,0,0,1.384,6.82328,6.021,6.021,0,0,0,1.97916,1.384,6.10377,6.10377,0,0,0,2.36676.4429Zm11.32138.76124V69.02806L335.968,80.7785V69.62317h1.19025V84.08635L327.221,72.32206V83.685Zm-224.60106.2076V69.817H108.336v1.2041h-5.67455v4.38741h5.53614v1.2041h-5.53614v7.25233Zm19.34881,0h-1.55011l-4.92716-6.69872h-.7612v6.69872h-1.27333V69.817h2.57428a5.23177,5.23177,0,0,1,3.41857.955,3.52933,3.52933,0,0,1,1.13492,2.87877,3.41857,3.41857,0,0,1-.96884,2.57428,3.69532,3.69532,0,0,1-2.685.94113ZM113.51232,70.938v5.1901h1.28714a4.05524,4.05524,0,0,0,2.49124-.56746,2.36669,2.36669,0,0,0,.70587-1.93764,2.5605,2.5605,0,0,0-.73354-2.0622,3.84775,3.84775,0,0,0-2.46358-.609Zm10.07577,12.92687V69.817h6.92017v1.2041H124.8337v4.38741h5.67455v1.2041H124.8337v5.99284h5.67455v1.2041Zm11.07227,0V69.817h1.27333V83.8649Zm17.32809-10.51867a5.90007,5.90007,0,0,0-9.16231-.91347,7.017,7.017,0,0,0-1.2041,6.92017,5.95171,5.95171,0,0,0,1.27333,1.97916,5.63324,5.63324,0,0,0,1.89612,1.28714,6.02011,6.02011,0,0,0,2.2975.429,5.38385,5.38385,0,0,0,3.84761-1.384,4.87184,4.87184,0,0,0,1.52245-3.64h-4.84412V76.917h6.242v.15227A7.25231,7.25231,0,0,1,152.03,82.32861a6.68491,6.68491,0,0,1-5.05173,1.89612A6.92025,6.92025,0,0,1,141.802,82.1902a7.32169,7.32169,0,0,1-1.97916-5.32854,8.17938,8.17938,0,0,1,.49823-2.865,6.83793,6.83793,0,0,1,1.384-2.339,6.69855,6.69855,0,0,1,2.2975-1.61934,7.30792,7.30792,0,0,1,2.8511-.53979,8.02748,8.02748,0,0,1,3.66768.77506,5.42528,5.42528,0,0,1,2.35287,2.26984Zm5.45309,10.51867V69.817h1.27333v5.70221h7.63985V69.817h1.27333V83.8649h-1.27333V76.61258h-7.63985V83.8649Zm17.17587,0V71.02107H170.756V69.817h9.0239v1.2041h-3.87527V83.8649ZM364.93591,81.512l1.09341-.58131a3.01715,3.01715,0,0,0,1.0657,1.60548,2.90649,2.90649,0,0,0,1.81308.56746,2.768,2.768,0,0,0,2.076-.78891,3.031,3.031,0,0,0,.74738-2.17294,2.76815,2.76815,0,0,0-.49823-1.68852,6.91981,6.91981,0,0,0-2.15909-1.55011,9.68886,9.68886,0,0,1-2.76807-1.97916,3.38879,3.38879,0,0,1,.3045-4.4843,3.69545,3.69545,0,0,1,2.62967-.94113,3.64015,3.64015,0,0,1,1.84076.4429,3.3355,3.3355,0,0,1,1.27332,1.384l-.98264.59512a2.14538,2.14538,0,0,0-.87195-.92732,2.65722,2.65722,0,0,0-1.384-.31834,2.10369,2.10369,0,0,0-2.26984,2.256q0,1.48095,2.43591,2.76807l.67816.35986a7.05885,7.05885,0,0,1,2.39438,1.86845,3.93077,3.93077,0,0,1,.609,2.28365,4.15212,4.15212,0,0,1-6.47726,3.41857A4.47028,4.47028,0,0,1,364.93591,81.512Zm26.21362-4.63652a7.15556,7.15556,0,0,1-.56747,2.76807,7.294,7.294,0,0,1-1.63315,2.38054,7.69525,7.69525,0,0,1-8.20731,1.60548,7.55691,7.55691,0,0,1-4.06906-3.99988,7.14217,7.14217,0,0,1-.56747-2.76807,7.25282,7.25282,0,0,1,.56747-2.85111,7.37656,7.37656,0,0,1,1.63315-2.40821,7.14157,7.14157,0,0,1,2.4082-1.57782,8.0965,8.0965,0,0,1,5.813,0,7.26577,7.26577,0,0,1,2.4082,1.57782,7.38973,7.38973,0,0,1,1.63315,2.40821A7.27962,7.27962,0,0,1,391.14954,76.87551Zm-7.52914,6.22815a6.13128,6.13128,0,0,0,2.3667-.45671,6.21365,6.21365,0,0,0,2.00687-1.384,6.28346,6.28346,0,0,0,0-8.844,5.97933,5.97933,0,0,0-1.993-1.384,6.15869,6.15869,0,0,0-2.38055-.45671,6.03392,6.03392,0,0,0-2.35287.45671,6.24963,6.24963,0,0,0-1.993,10.24181,5.71344,5.71344,0,0,0,4.34589,1.82694Zm11.33524.76124V69.817H396.229V82.60543h4.81644v1.2041ZM403.6474,69.817h1.25943v9.17617a4.38723,4.38723,0,0,0,.955,3.10022,4.63656,4.63656,0,0,0,5.78525,0,4.38723,4.38723,0,0,0,.955-3.10022V69.817h1.27328v8.76092a6.18632,6.18632,0,0,1-1.27328,4.249,5.95137,5.95137,0,0,1-7.68137,0,6.18632,6.18632,0,0,1-1.27328-4.249Zm17.13434,14.04794V71.02107h-3.86142V69.817h9.02393v1.2041H422.069V83.8649Zm8.24878,0V69.817h1.27328V83.8649Zm20.1377-6.9894a7.1555,7.1555,0,0,1-.56741,2.76807,7.294,7.294,0,0,1-1.63315,2.38054,7.69527,7.69527,0,0,1-8.20731,1.60548,7.55691,7.55691,0,0,1-4.06906-3.99988,7.14156,7.14156,0,0,1-.56741-2.76807,7.25165,7.25165,0,0,1,.56741-2.85111,7.37766,7.37766,0,0,1,1.63315-2.40821,7.14157,7.14157,0,0,1,2.4082-1.57782,8.0965,8.0965,0,0,1,5.813,0,7.26648,7.26648,0,0,1,2.4082,1.57782,7.39084,7.39084,0,0,1,1.63315,2.40821,7.28023,7.28023,0,0,1,.58124,2.865Zm-7.52914,6.22815a6.13169,6.13169,0,0,0,2.38058-.49823,6.214,6.214,0,0,0,2.00687-1.384,6.28346,6.28346,0,0,0,0-8.844,5.97956,5.97956,0,0,0-1.993-1.384,6.15839,6.15839,0,0,0-2.38049-.45671,6.03392,6.03392,0,0,0-2.35287.45671,6.24963,6.24963,0,0,0-1.993,10.24181,5.95608,5.95608,0,0,0,4.332,1.86845Zm11.32147.76124V69.2218l9.9512,11.75044V69.81693H464.102v14.4632l-9.93735-11.76429V83.87872ZM467.54822,81.512l1.09335-.58131a3.01715,3.01715,0,0,0,1.06573,1.60548,2.90649,2.90649,0,0,0,1.81308.56746,2.768,2.768,0,0,0,2.076-.78891,3.03115,3.03115,0,0,0,.74734-2.17294,2.76773,2.76773,0,0,0-.49823-1.68852,6.92075,6.92075,0,0,0-2.15909-1.55011A9.68915,9.68915,0,0,1,468.9184,74.924a3.38883,3.38883,0,0,1,.30444-4.4843,3.69531,3.69531,0,0,1,2.6297-.94113,3.64026,3.64026,0,0,1,1.84079.4429,3.33543,3.33543,0,0,1,1.27328,1.384l-.9827.59512a2.14538,2.14538,0,0,0-.87195-.92732,2.65715,2.65715,0,0,0-1.384-.31834,2.10369,2.10369,0,0,0-2.26984,2.256q0,1.481,2.43591,2.76807l.67816.35986a7.05884,7.05884,0,0,1,2.39435,1.86845,3.9308,3.9308,0,0,1,.609,2.28365,4.15212,4.15212,0,0,1-6.47726,3.41857,4.47072,4.47072,0,0,1-1.55008-2.11751Z" fill="#529141" stroke="#529141" stroke-width="0.5"/>
  <path d="M478.38675,55.35063V51.91312H479.842a2.50931,2.50931,0,0,1,.80294.08783.79016.79016,0,0,1,.40147.3262.99087.99087,0,0,1,.15054.53946.91575.91575,0,0,1-.22581.63984,1.09153,1.09153,0,0,1-.67744.31364,1.619,1.619,0,0,1,.37636.28857,3.89764,3.89764,0,0,1,.38891.552l.414.66492h-.828l-.50186-.75275a4.84466,4.84466,0,0,0-.3638-.50182.53924.53924,0,0,0-.21326-.138,1.14269,1.14269,0,0,0-.35132,0h-.138v1.43023Zm.69-1.98221h.51434a2.66084,2.66084,0,0,0,.62729,0,.37629.37629,0,0,0,.2007-.15054.45194.45194,0,0,0,.07527-.26345.414.414,0,0,0-.08783-.276.42671.42671,0,0,0-.26349-.138h-1.05387Z" fill="#272f6a"/>
  <path d="M.81041,57.07V.00628H17.41882A88.87138,88.87138,0,0,1,30.927.87823,29.81211,29.81211,0,0,1,40.034,3.6463,28.60783,28.60783,0,0,1,51.39686,13.97118a29.06481,29.06481,0,0,1,0,29.23079A28.77442,28.77442,0,0,1,40.0201,53.52686a30.14415,30.14415,0,0,1-9.20382,2.76807,102.73969,102.73969,0,0,1-14.93372.85809Zm20.3453-17.36961q6.92019,0,10.13114-2.76807T34.484,28.62813q0-5.53612-3.05872-8.3042t-9.37-2.7681h-.89961Zm42.18538-8.74711V.00628H83.83863V31.10553q0,5.42543,1.28714,7.46a5.71608,5.71608,0,0,0,8.81629,0q1.384-2.10367,1.384-7.40459V.00628h20.49754v30.947a51.78939,51.78939,0,0,1-.80272,10.02039,18.51893,18.51893,0,0,1-2.54662,6.588,22.37954,22.37954,0,0,1-9.35608,8.17965,33.65978,33.65978,0,0,1-27.08556,0,22.37954,22.37954,0,0,1-9.35608-8.17965,18.311,18.311,0,0,1-2.49124-6.505A53.13444,53.13444,0,0,1,63.34109,30.95326ZM127.2004,57.07V.00628h20.11l17.72946,29.85363a37.57038,37.57038,0,0,1-.48442-4.40122q-.13843-2.422-.13841-6.31119V.00628h19.764V57.07H163.91882L146.45233,27.43785q.31835,1.91.47057,4.1521t.15222,4.92716V57.09769Zm62.71058,0L210.2563.00624h22.83656L253.02295,57.07h-22.02L229.176,49.9007H213.68867L211.931,57.07Zm27.21011-20.76051h8.5395l-1.70238-6.44956q-1.28712-4.91333-1.75771-7.55681a40.40881,40.40881,0,0,1-.58131-4.98253h-.429a40.44166,40.44166,0,0,1-.58131,4.98253q-.4706,2.65741-1.75771,7.55681ZM269.85281,57.07,248.06812.00624h22.21375l6.04822,20.66362a72.42438,72.42438,0,0,1,1.96536,7.63985,45.18408,45.18408,0,0,1,.84424,5.84063h.38754q.38754-2.87877,1.10721-6.07593t1.85461-6.92017L288.88324.03387h21.78467L289.00784,57.07Zm35.76343,0L325.96155.00624H348.7981L368.75589,57.07H346.72208l-1.82693-7.16929H329.42166L327.66394,57.07Zm27.21011-20.76051h8.53952L339.60815,29.846q-1.28714-4.91333-1.75772-7.55681a40.44165,40.44165,0,0,1-.5813-4.98253h-.346a40.13923,40.13923,0,0,1-.5813,4.98253q-.47058,2.65734-1.75772,7.55681ZM375.939,57.07V.00628h20.11L413.7923,29.85991a37.37628,37.37628,0,0,1-.48437-4.40122q-.13838-2.422-.13837-6.31119V.00628h19.77783V57.07H412.6575L395.12177,27.45171q.31833,1.91.47058,4.1521t.15222,4.92716V57.11155Zm76.38486,0V18.67689H440.90558V.00628H484.295V18.67689H472.87674V57.07Zm27.36781,0a3.43782,3.43782,0,1,1,3.43782-3.43782A3.44208,3.44208,0,0,1,479.69167,57.07Zm0-6.24836a2.81054,2.81054,0,1,0,2.81054,2.81054A2.81359,2.81359,0,0,0,479.69167,50.82165Z" fill="#272f6a"/>
</svg>
